# xmcd
#
# Track frame offsets:
#	150
#	37329
#	83768
#	121267
#	156106
#	205520
#	251420
#
# Disc length: 4061 seconds
#
# Revision: 1
# Processed by: cddbd v1.5PL3 Copyright (c) Steve Scherf et al.
# Submitted via: audiograbber 1.82.01
#
DISCID=520fdb07
DTITLE=Jeremy J. Siegel - Stocks for the Long Run - CD2
DYEAR=2002
DGENRE=Speech
TTITLE0=Chapter 3 - The Great Bull Market
TTITLE1=Factors Raising Valuation
TTITLE2=Future Equity Returns
TTITLE3=The Baby Boomers
TTITLE4=Chapter 4 - Large Stocks, Small Stocks
TTITLE5=Growth and Value Stocks
TTITLE6=Chapter 5 - Growth and Technology Stocks
EXTD=
EXTT0=
EXTT1=
EXTT2=
EXTT3=
EXTT4=
EXTT5=
EXTT6=
PLAYORDER=
